<mxfile host="app.diagrams.net" agent="Mozilla/5.0 (Macintosh; Intel Mac OS X 10_15_7) AppleWebKit/537.36 (KHTML, like Gecko) Chrome/128.0.0.0 Safari/537.36" version="24.7.12">
  <diagram name="Page-1" id="MOCjurJPFzLoFM43xPGN">
    <mxGraphModel dx="2269" dy="2960" grid="1" gridSize="10" guides="1" tooltips="1" connect="1" arrows="1" fold="1" page="1" pageScale="1" pageWidth="827" pageHeight="1169" math="0" shadow="0">
      <root>
        <mxCell id="0" />
        <mxCell id="1" parent="0" />
        <mxCell id="UTlt9TKINnefYzKURxrY-1" value="Freelancer" style="shape=umlActor;verticalLabelPosition=bottom;verticalAlign=top;html=1;" vertex="1" parent="1">
          <mxGeometry x="150" y="320" width="140" height="300" as="geometry" />
        </mxCell>
        <mxCell id="UTlt9TKINnefYzKURxrY-3" value="1" style="verticalLabelPosition=bottom;verticalAlign=top;html=1;shape=mxgraph.basic.rect;fillColor2=none;strokeWidth=1;size=20;indent=5;rotation=90;" vertex="1" parent="1">
          <mxGeometry x="-706.63" y="1137.63" width="2790.88" height="375.63" as="geometry" />
        </mxCell>
        <mxCell id="UTlt9TKINnefYzKURxrY-4" value="Create Account" style="ellipse;whiteSpace=wrap;html=1;" vertex="1" parent="1">
          <mxGeometry x="615" y="-50" width="170" height="80" as="geometry" />
        </mxCell>
        <mxCell id="UTlt9TKINnefYzKURxrY-5" value="Login Account" style="ellipse;whiteSpace=wrap;html=1;" vertex="1" parent="1">
          <mxGeometry x="615" y="40" width="170" height="80" as="geometry" />
        </mxCell>
        <mxCell id="UTlt9TKINnefYzKURxrY-8" style="edgeStyle=orthogonalEdgeStyle;rounded=0;orthogonalLoop=1;jettySize=auto;html=1;entryX=1;entryY=0.5;entryDx=0;entryDy=0;dashed=1;strokeColor=#000066;endArrow=open;endFill=0;" edge="1" parent="1" source="UTlt9TKINnefYzKURxrY-6" target="UTlt9TKINnefYzKURxrY-7">
          <mxGeometry relative="1" as="geometry">
            <Array as="points">
              <mxPoint x="805" y="170" />
              <mxPoint x="805" y="260" />
            </Array>
          </mxGeometry>
        </mxCell>
        <mxCell id="UTlt9TKINnefYzKURxrY-14" value="&amp;lt;&amp;lt;extend&amp;gt;&amp;gt;" style="edgeLabel;html=1;align=center;verticalAlign=middle;resizable=0;points=[];" vertex="1" connectable="0" parent="UTlt9TKINnefYzKURxrY-8">
          <mxGeometry x="-0.0588" relative="1" as="geometry">
            <mxPoint as="offset" />
          </mxGeometry>
        </mxCell>
        <mxCell id="UTlt9TKINnefYzKURxrY-6" value="Create profile" style="ellipse;whiteSpace=wrap;html=1;" vertex="1" parent="1">
          <mxGeometry x="615" y="130" width="175" height="80" as="geometry" />
        </mxCell>
        <mxCell id="UTlt9TKINnefYzKURxrY-7" value="Update profile" style="ellipse;whiteSpace=wrap;html=1;" vertex="1" parent="1">
          <mxGeometry x="615" y="220" width="170" height="80" as="geometry" />
        </mxCell>
        <mxCell id="UTlt9TKINnefYzKURxrY-9" value="Browse projects" style="ellipse;whiteSpace=wrap;html=1;" vertex="1" parent="1">
          <mxGeometry x="615" y="310" width="170" height="80" as="geometry" />
        </mxCell>
        <mxCell id="UTlt9TKINnefYzKURxrY-12" style="edgeStyle=orthogonalEdgeStyle;rounded=0;orthogonalLoop=1;jettySize=auto;html=1;entryX=1;entryY=0.5;entryDx=0;entryDy=0;exitX=1;exitY=0.5;exitDx=0;exitDy=0;dashed=1;endArrow=open;endFill=0;" edge="1" parent="1" source="UTlt9TKINnefYzKURxrY-10" target="UTlt9TKINnefYzKURxrY-9">
          <mxGeometry relative="1" as="geometry" />
        </mxCell>
        <mxCell id="UTlt9TKINnefYzKURxrY-13" value="&amp;lt;&amp;lt;extend&amp;gt;&amp;gt;" style="edgeLabel;html=1;align=center;verticalAlign=middle;resizable=0;points=[];" vertex="1" connectable="0" parent="UTlt9TKINnefYzKURxrY-12">
          <mxGeometry x="0.1039" y="-1" relative="1" as="geometry">
            <mxPoint as="offset" />
          </mxGeometry>
        </mxCell>
        <mxCell id="UTlt9TKINnefYzKURxrY-10" value="filter projects" style="ellipse;whiteSpace=wrap;html=1;" vertex="1" parent="1">
          <mxGeometry x="617.5" y="400" width="170" height="80" as="geometry" />
        </mxCell>
        <mxCell id="UTlt9TKINnefYzKURxrY-11" value="View ongoing projects" style="ellipse;whiteSpace=wrap;html=1;" vertex="1" parent="1">
          <mxGeometry x="615" y="680" width="170" height="80" as="geometry" />
        </mxCell>
        <mxCell id="UTlt9TKINnefYzKURxrY-16" style="edgeStyle=orthogonalEdgeStyle;rounded=0;orthogonalLoop=1;jettySize=auto;html=1;entryX=0;entryY=0.5;entryDx=0;entryDy=0;dashed=1;endArrow=open;endFill=0;exitX=0;exitY=0.5;exitDx=0;exitDy=0;" edge="1" parent="1" source="UTlt9TKINnefYzKURxrY-15" target="UTlt9TKINnefYzKURxrY-5">
          <mxGeometry relative="1" as="geometry">
            <Array as="points">
              <mxPoint x="540" y="630" />
              <mxPoint x="540" y="80" />
            </Array>
          </mxGeometry>
        </mxCell>
        <mxCell id="UTlt9TKINnefYzKURxrY-17" value="&amp;lt;&amp;lt;include&amp;gt;&amp;gt;" style="edgeLabel;html=1;align=center;verticalAlign=middle;resizable=0;points=[];" vertex="1" connectable="0" parent="UTlt9TKINnefYzKURxrY-16">
          <mxGeometry x="0.1434" relative="1" as="geometry">
            <mxPoint as="offset" />
          </mxGeometry>
        </mxCell>
        <mxCell id="UTlt9TKINnefYzKURxrY-15" value="collect payments" style="ellipse;whiteSpace=wrap;html=1;" vertex="1" parent="1">
          <mxGeometry x="615" y="590" width="170" height="80" as="geometry" />
        </mxCell>
        <mxCell id="UTlt9TKINnefYzKURxrY-26" style="edgeStyle=orthogonalEdgeStyle;rounded=0;orthogonalLoop=1;jettySize=auto;html=1;entryX=1;entryY=0.5;entryDx=0;entryDy=0;exitX=1;exitY=0.5;exitDx=0;exitDy=0;dashed=1;endArrow=open;endFill=0;" edge="1" parent="1" source="UTlt9TKINnefYzKURxrY-18" target="UTlt9TKINnefYzKURxrY-11">
          <mxGeometry relative="1" as="geometry">
            <Array as="points">
              <mxPoint x="840" y="810" />
              <mxPoint x="840" y="720" />
            </Array>
          </mxGeometry>
        </mxCell>
        <mxCell id="UTlt9TKINnefYzKURxrY-27" value="&amp;lt;&amp;lt;extend&amp;gt;&amp;gt;" style="edgeLabel;html=1;align=center;verticalAlign=middle;resizable=0;points=[];" vertex="1" connectable="0" parent="UTlt9TKINnefYzKURxrY-26">
          <mxGeometry x="-0.0109" y="1" relative="1" as="geometry">
            <mxPoint as="offset" />
          </mxGeometry>
        </mxCell>
        <mxCell id="UTlt9TKINnefYzKURxrY-18" value="View completed projects" style="ellipse;whiteSpace=wrap;html=1;" vertex="1" parent="1">
          <mxGeometry x="620" y="770" width="170" height="80" as="geometry" />
        </mxCell>
        <mxCell id="UTlt9TKINnefYzKURxrY-21" value="View client information" style="ellipse;whiteSpace=wrap;html=1;" vertex="1" parent="1">
          <mxGeometry x="620" y="860" width="170" height="80" as="geometry" />
        </mxCell>
        <mxCell id="UTlt9TKINnefYzKURxrY-22" value="View ratings and feedbacks" style="ellipse;whiteSpace=wrap;html=1;" vertex="1" parent="1">
          <mxGeometry x="620" y="950" width="170" height="80" as="geometry" />
        </mxCell>
        <mxCell id="UTlt9TKINnefYzKURxrY-23" value="Bid on projects" style="ellipse;whiteSpace=wrap;html=1;" vertex="1" parent="1">
          <mxGeometry x="620" y="1040" width="170" height="80" as="geometry" />
        </mxCell>
        <mxCell id="UTlt9TKINnefYzKURxrY-24" value="Manage bids" style="ellipse;whiteSpace=wrap;html=1;" vertex="1" parent="1">
          <mxGeometry x="620" y="1130" width="170" height="80" as="geometry" />
        </mxCell>
        <mxCell id="UTlt9TKINnefYzKURxrY-30" style="edgeStyle=orthogonalEdgeStyle;rounded=0;orthogonalLoop=1;jettySize=auto;html=1;entryX=0;entryY=0.5;entryDx=0;entryDy=0;exitX=0;exitY=0.5;exitDx=0;exitDy=0;dashed=1;endArrow=open;endFill=0;" edge="1" parent="1" source="UTlt9TKINnefYzKURxrY-28" target="UTlt9TKINnefYzKURxrY-9">
          <mxGeometry relative="1" as="geometry">
            <Array as="points">
              <mxPoint x="590" y="530" />
              <mxPoint x="590" y="350" />
            </Array>
          </mxGeometry>
        </mxCell>
        <mxCell id="UTlt9TKINnefYzKURxrY-31" value="&amp;lt;&amp;lt;extend&amp;gt;&amp;gt;" style="edgeLabel;html=1;align=center;verticalAlign=middle;resizable=0;points=[];" vertex="1" connectable="0" parent="UTlt9TKINnefYzKURxrY-30">
          <mxGeometry x="0.1484" y="3" relative="1" as="geometry">
            <mxPoint as="offset" />
          </mxGeometry>
        </mxCell>
        <mxCell id="UTlt9TKINnefYzKURxrY-28" value="Search projects" style="ellipse;whiteSpace=wrap;html=1;" vertex="1" parent="1">
          <mxGeometry x="617.5" y="490" width="170" height="80" as="geometry" />
        </mxCell>
        <mxCell id="UTlt9TKINnefYzKURxrY-32" style="edgeStyle=orthogonalEdgeStyle;rounded=0;orthogonalLoop=1;jettySize=auto;html=1;entryX=0.996;entryY=0.459;entryDx=0;entryDy=0;entryPerimeter=0;exitX=1.001;exitY=0.547;exitDx=0;exitDy=0;exitPerimeter=0;dashed=1;endArrow=open;endFill=0;" edge="1" parent="1" source="UTlt9TKINnefYzKURxrY-24" target="UTlt9TKINnefYzKURxrY-23">
          <mxGeometry relative="1" as="geometry">
            <Array as="points">
              <mxPoint x="840" y="1174" />
              <mxPoint x="840" y="1077" />
            </Array>
          </mxGeometry>
        </mxCell>
        <mxCell id="UTlt9TKINnefYzKURxrY-33" value="&amp;lt;&amp;lt;extend&amp;gt;&amp;gt;" style="edgeLabel;html=1;align=center;verticalAlign=middle;resizable=0;points=[];" vertex="1" connectable="0" parent="UTlt9TKINnefYzKURxrY-32">
          <mxGeometry x="0.0159" y="-1" relative="1" as="geometry">
            <mxPoint as="offset" />
          </mxGeometry>
        </mxCell>
        <mxCell id="UTlt9TKINnefYzKURxrY-34" value="Post projects" style="ellipse;whiteSpace=wrap;html=1;" vertex="1" parent="1">
          <mxGeometry x="617.5" y="1230" width="170" height="80" as="geometry" />
        </mxCell>
        <mxCell id="UTlt9TKINnefYzKURxrY-37" style="edgeStyle=orthogonalEdgeStyle;rounded=0;orthogonalLoop=1;jettySize=auto;html=1;exitX=1;exitY=0.5;exitDx=0;exitDy=0;entryX=1;entryY=0.5;entryDx=0;entryDy=0;dashed=1;endArrow=open;endFill=0;" edge="1" parent="1" source="UTlt9TKINnefYzKURxrY-35" target="UTlt9TKINnefYzKURxrY-36">
          <mxGeometry relative="1" as="geometry">
            <Array as="points">
              <mxPoint x="830" y="1360" />
              <mxPoint x="830" y="1450" />
            </Array>
          </mxGeometry>
        </mxCell>
        <mxCell id="UTlt9TKINnefYzKURxrY-38" value="&amp;lt;&amp;lt;exclude&amp;gt;&amp;gt;" style="edgeLabel;html=1;align=center;verticalAlign=middle;resizable=0;points=[];" vertex="1" connectable="0" parent="UTlt9TKINnefYzKURxrY-37">
          <mxGeometry x="-0.0264" y="2" relative="1" as="geometry">
            <mxPoint as="offset" />
          </mxGeometry>
        </mxCell>
        <mxCell id="UTlt9TKINnefYzKURxrY-35" value="Manage posted projects" style="ellipse;whiteSpace=wrap;html=1;" vertex="1" parent="1">
          <mxGeometry x="620" y="1320" width="170" height="80" as="geometry" />
        </mxCell>
        <mxCell id="UTlt9TKINnefYzKURxrY-36" value="Update projects" style="ellipse;whiteSpace=wrap;html=1;" vertex="1" parent="1">
          <mxGeometry x="620" y="1410" width="170" height="80" as="geometry" />
        </mxCell>
        <mxCell id="UTlt9TKINnefYzKURxrY-40" value="see all posted projects" style="ellipse;whiteSpace=wrap;html=1;" vertex="1" parent="1">
          <mxGeometry x="620" y="1500" width="170" height="80" as="geometry" />
        </mxCell>
        <mxCell id="UTlt9TKINnefYzKURxrY-41" style="edgeStyle=orthogonalEdgeStyle;rounded=0;orthogonalLoop=1;jettySize=auto;html=1;entryX=-0.013;entryY=0.565;entryDx=0;entryDy=0;entryPerimeter=0;exitX=0;exitY=0.5;exitDx=0;exitDy=0;dashed=1;endArrow=open;endFill=0;" edge="1" parent="1" source="UTlt9TKINnefYzKURxrY-34" target="UTlt9TKINnefYzKURxrY-40">
          <mxGeometry relative="1" as="geometry">
            <Array as="points">
              <mxPoint x="580" y="1270" />
              <mxPoint x="580" y="1545" />
            </Array>
          </mxGeometry>
        </mxCell>
        <mxCell id="UTlt9TKINnefYzKURxrY-42" value="&amp;lt;&amp;lt;include&amp;gt;&amp;gt;" style="edgeLabel;html=1;align=center;verticalAlign=middle;resizable=0;points=[];" vertex="1" connectable="0" parent="UTlt9TKINnefYzKURxrY-41">
          <mxGeometry x="-0.0658" y="-1" relative="1" as="geometry">
            <mxPoint as="offset" />
          </mxGeometry>
        </mxCell>
        <mxCell id="UTlt9TKINnefYzKURxrY-43" value="Give feedback and ratings" style="ellipse;whiteSpace=wrap;html=1;" vertex="1" parent="1">
          <mxGeometry x="620" y="1590" width="170" height="80" as="geometry" />
        </mxCell>
        <mxCell id="UTlt9TKINnefYzKURxrY-44" value="Browser Freelancers" style="ellipse;whiteSpace=wrap;html=1;" vertex="1" parent="1">
          <mxGeometry x="617.5" y="1680" width="170" height="80" as="geometry" />
        </mxCell>
        <mxCell id="UTlt9TKINnefYzKURxrY-48" style="edgeStyle=orthogonalEdgeStyle;rounded=0;orthogonalLoop=1;jettySize=auto;html=1;entryX=1;entryY=0.5;entryDx=0;entryDy=0;exitX=1;exitY=0.5;exitDx=0;exitDy=0;dashed=1;endArrow=open;endFill=0;" edge="1" parent="1" source="UTlt9TKINnefYzKURxrY-45" target="UTlt9TKINnefYzKURxrY-44">
          <mxGeometry relative="1" as="geometry">
            <Array as="points">
              <mxPoint x="820" y="1810" />
              <mxPoint x="820" y="1720" />
            </Array>
          </mxGeometry>
        </mxCell>
        <mxCell id="UTlt9TKINnefYzKURxrY-49" value="&amp;lt;&amp;lt;extend&amp;gt;&amp;gt;" style="edgeLabel;html=1;align=center;verticalAlign=middle;resizable=0;points=[];" vertex="1" connectable="0" parent="UTlt9TKINnefYzKURxrY-48">
          <mxGeometry x="-0.0345" y="-2" relative="1" as="geometry">
            <mxPoint as="offset" />
          </mxGeometry>
        </mxCell>
        <mxCell id="UTlt9TKINnefYzKURxrY-45" value="Filter freelancers" style="ellipse;whiteSpace=wrap;html=1;" vertex="1" parent="1">
          <mxGeometry x="620" y="1770" width="170" height="80" as="geometry" />
        </mxCell>
        <mxCell id="UTlt9TKINnefYzKURxrY-46" value="Select Freelancers" style="ellipse;whiteSpace=wrap;html=1;" vertex="1" parent="1">
          <mxGeometry x="620" y="1860" width="170" height="80" as="geometry" />
        </mxCell>
        <mxCell id="UTlt9TKINnefYzKURxrY-50" value="Approve work" style="ellipse;whiteSpace=wrap;html=1;" vertex="1" parent="1">
          <mxGeometry x="617.5" y="1950" width="170" height="80" as="geometry" />
        </mxCell>
        <mxCell id="UTlt9TKINnefYzKURxrY-51" value="Make payment" style="ellipse;whiteSpace=wrap;html=1;" vertex="1" parent="1">
          <mxGeometry x="617.5" y="2040" width="170" height="80" as="geometry" />
        </mxCell>
        <mxCell id="UTlt9TKINnefYzKURxrY-52" value="Initiate conversation with freelancers" style="ellipse;whiteSpace=wrap;html=1;" vertex="1" parent="1">
          <mxGeometry x="617.5" y="2130" width="170" height="80" as="geometry" />
        </mxCell>
        <mxCell id="UTlt9TKINnefYzKURxrY-53" value="View freelancers past work" style="ellipse;whiteSpace=wrap;html=1;" vertex="1" parent="1">
          <mxGeometry x="617.5" y="2220" width="170" height="80" as="geometry" />
        </mxCell>
        <mxCell id="UTlt9TKINnefYzKURxrY-57" style="edgeStyle=orthogonalEdgeStyle;rounded=0;orthogonalLoop=1;jettySize=auto;html=1;entryX=0;entryY=0.5;entryDx=0;entryDy=0;exitX=0;exitY=0.5;exitDx=0;exitDy=0;dashed=1;endArrow=open;endFill=0;" edge="1" parent="1" source="UTlt9TKINnefYzKURxrY-54" target="UTlt9TKINnefYzKURxrY-53">
          <mxGeometry relative="1" as="geometry" />
        </mxCell>
        <mxCell id="UTlt9TKINnefYzKURxrY-58" value="&amp;lt;&amp;lt;extend&amp;gt;&amp;gt;" style="edgeLabel;html=1;align=center;verticalAlign=middle;resizable=0;points=[];" vertex="1" connectable="0" parent="UTlt9TKINnefYzKURxrY-57">
          <mxGeometry x="0.1403" y="-1" relative="1" as="geometry">
            <mxPoint as="offset" />
          </mxGeometry>
        </mxCell>
        <mxCell id="UTlt9TKINnefYzKURxrY-54" value="Review bids" style="ellipse;whiteSpace=wrap;html=1;" vertex="1" parent="1">
          <mxGeometry x="617.5" y="2310" width="170" height="80" as="geometry" />
        </mxCell>
        <mxCell id="UTlt9TKINnefYzKURxrY-55" style="edgeStyle=orthogonalEdgeStyle;rounded=0;orthogonalLoop=1;jettySize=auto;html=1;entryX=1.002;entryY=0.448;entryDx=0;entryDy=0;entryPerimeter=0;exitX=1;exitY=0.5;exitDx=0;exitDy=0;dashed=1;endArrow=open;endFill=0;" edge="1" parent="1" source="UTlt9TKINnefYzKURxrY-54" target="UTlt9TKINnefYzKURxrY-52">
          <mxGeometry relative="1" as="geometry">
            <Array as="points">
              <mxPoint x="820" y="2350" />
              <mxPoint x="820" y="2166" />
            </Array>
          </mxGeometry>
        </mxCell>
        <mxCell id="UTlt9TKINnefYzKURxrY-56" value="&amp;lt;&amp;lt;extend&amp;gt;&amp;gt;" style="edgeLabel;html=1;align=center;verticalAlign=middle;resizable=0;points=[];" vertex="1" connectable="0" parent="UTlt9TKINnefYzKURxrY-55">
          <mxGeometry x="0.0104" y="-1" relative="1" as="geometry">
            <mxPoint as="offset" />
          </mxGeometry>
        </mxCell>
        <mxCell id="UTlt9TKINnefYzKURxrY-59" value="Client" style="shape=umlActor;verticalLabelPosition=bottom;verticalAlign=top;html=1;" vertex="1" parent="1">
          <mxGeometry x="1120" y="1600" width="140" height="300" as="geometry" />
        </mxCell>
        <mxCell id="UTlt9TKINnefYzKURxrY-60" value="Administrator" style="shape=umlActor;verticalLabelPosition=bottom;verticalAlign=top;html=1;" vertex="1" parent="1">
          <mxGeometry x="150" y="2390" width="140" height="300" as="geometry" />
        </mxCell>
        <mxCell id="UTlt9TKINnefYzKURxrY-61" value="Manage users" style="ellipse;whiteSpace=wrap;html=1;" vertex="1" parent="1">
          <mxGeometry x="620" y="2410" width="170" height="80" as="geometry" />
        </mxCell>
        <mxCell id="UTlt9TKINnefYzKURxrY-62" value="Manage projects" style="ellipse;whiteSpace=wrap;html=1;" vertex="1" parent="1">
          <mxGeometry x="617.5" y="2500" width="170" height="80" as="geometry" />
        </mxCell>
        <mxCell id="UTlt9TKINnefYzKURxrY-63" value="Generate reports" style="ellipse;whiteSpace=wrap;html=1;" vertex="1" parent="1">
          <mxGeometry x="617.5" y="2600" width="170" height="80" as="geometry" />
        </mxCell>
        <mxCell id="UTlt9TKINnefYzKURxrY-67" value="" style="endArrow=classic;html=1;rounded=0;exitX=0.5;exitY=0.5;exitDx=0;exitDy=0;exitPerimeter=0;entryX=0;entryY=0.5;entryDx=0;entryDy=0;" edge="1" parent="1" source="UTlt9TKINnefYzKURxrY-60" target="UTlt9TKINnefYzKURxrY-61">
          <mxGeometry width="50" height="50" relative="1" as="geometry">
            <mxPoint x="400" y="2580" as="sourcePoint" />
            <mxPoint x="450" y="2530" as="targetPoint" />
          </mxGeometry>
        </mxCell>
        <mxCell id="UTlt9TKINnefYzKURxrY-68" value="" style="endArrow=classic;html=1;rounded=0;exitX=0.5;exitY=0.5;exitDx=0;exitDy=0;exitPerimeter=0;entryX=0;entryY=0.5;entryDx=0;entryDy=0;" edge="1" parent="1" source="UTlt9TKINnefYzKURxrY-60" target="UTlt9TKINnefYzKURxrY-62">
          <mxGeometry width="50" height="50" relative="1" as="geometry">
            <mxPoint x="230" y="2550" as="sourcePoint" />
            <mxPoint x="630" y="2460" as="targetPoint" />
          </mxGeometry>
        </mxCell>
        <mxCell id="UTlt9TKINnefYzKURxrY-69" value="" style="endArrow=classic;html=1;rounded=0;entryX=0;entryY=0.5;entryDx=0;entryDy=0;" edge="1" parent="1" target="UTlt9TKINnefYzKURxrY-63">
          <mxGeometry width="50" height="50" relative="1" as="geometry">
            <mxPoint x="220" y="2540" as="sourcePoint" />
            <mxPoint x="628" y="2550" as="targetPoint" />
          </mxGeometry>
        </mxCell>
        <mxCell id="UTlt9TKINnefYzKURxrY-70" value="" style="endArrow=classic;html=1;rounded=0;entryX=1;entryY=0.5;entryDx=0;entryDy=0;exitX=0;exitY=0.3333333333333333;exitDx=0;exitDy=0;exitPerimeter=0;" edge="1" parent="1" source="UTlt9TKINnefYzKURxrY-59" target="UTlt9TKINnefYzKURxrY-34">
          <mxGeometry width="50" height="50" relative="1" as="geometry">
            <mxPoint x="1250" y="1850" as="sourcePoint" />
            <mxPoint x="1300" y="1800" as="targetPoint" />
          </mxGeometry>
        </mxCell>
        <mxCell id="UTlt9TKINnefYzKURxrY-71" value="" style="endArrow=classic;html=1;rounded=0;entryX=0.971;entryY=0.673;entryDx=0;entryDy=0;exitX=0;exitY=0.3333333333333333;exitDx=0;exitDy=0;exitPerimeter=0;entryPerimeter=0;" edge="1" parent="1" source="UTlt9TKINnefYzKURxrY-59" target="UTlt9TKINnefYzKURxrY-35">
          <mxGeometry width="50" height="50" relative="1" as="geometry">
            <mxPoint x="1130" y="1710" as="sourcePoint" />
            <mxPoint x="798" y="1280" as="targetPoint" />
          </mxGeometry>
        </mxCell>
        <mxCell id="UTlt9TKINnefYzKURxrY-72" value="" style="endArrow=classic;html=1;rounded=0;entryX=0.971;entryY=0.642;entryDx=0;entryDy=0;exitX=0;exitY=0.3333333333333333;exitDx=0;exitDy=0;exitPerimeter=0;entryPerimeter=0;" edge="1" parent="1" source="UTlt9TKINnefYzKURxrY-59" target="UTlt9TKINnefYzKURxrY-36">
          <mxGeometry width="50" height="50" relative="1" as="geometry">
            <mxPoint x="1140" y="1720" as="sourcePoint" />
            <mxPoint x="800" y="1370" as="targetPoint" />
          </mxGeometry>
        </mxCell>
        <mxCell id="UTlt9TKINnefYzKURxrY-73" value="" style="endArrow=classic;html=1;rounded=0;entryX=1;entryY=0.5;entryDx=0;entryDy=0;" edge="1" parent="1" target="UTlt9TKINnefYzKURxrY-40">
          <mxGeometry width="50" height="50" relative="1" as="geometry">
            <mxPoint x="1120" y="1700" as="sourcePoint" />
            <mxPoint x="795" y="1471" as="targetPoint" />
          </mxGeometry>
        </mxCell>
        <mxCell id="UTlt9TKINnefYzKURxrY-74" value="" style="endArrow=classic;html=1;rounded=0;entryX=1;entryY=0.5;entryDx=0;entryDy=0;" edge="1" parent="1" target="UTlt9TKINnefYzKURxrY-43">
          <mxGeometry width="50" height="50" relative="1" as="geometry">
            <mxPoint x="1120" y="1700" as="sourcePoint" />
            <mxPoint x="800" y="1550" as="targetPoint" />
          </mxGeometry>
        </mxCell>
        <mxCell id="UTlt9TKINnefYzKURxrY-75" value="" style="endArrow=classic;html=1;rounded=0;entryX=0.971;entryY=0.345;entryDx=0;entryDy=0;entryPerimeter=0;" edge="1" parent="1" target="UTlt9TKINnefYzKURxrY-44">
          <mxGeometry width="50" height="50" relative="1" as="geometry">
            <mxPoint x="1120" y="1700" as="sourcePoint" />
            <mxPoint x="800" y="1640" as="targetPoint" />
          </mxGeometry>
        </mxCell>
        <mxCell id="UTlt9TKINnefYzKURxrY-76" value="" style="endArrow=classic;html=1;rounded=0;entryX=0.957;entryY=0.361;entryDx=0;entryDy=0;entryPerimeter=0;exitX=0.5;exitY=0.5;exitDx=0;exitDy=0;exitPerimeter=0;" edge="1" parent="1" source="UTlt9TKINnefYzKURxrY-59" target="UTlt9TKINnefYzKURxrY-45">
          <mxGeometry width="50" height="50" relative="1" as="geometry">
            <mxPoint x="1130" y="1710" as="sourcePoint" />
            <mxPoint x="793" y="1718" as="targetPoint" />
          </mxGeometry>
        </mxCell>
        <mxCell id="UTlt9TKINnefYzKURxrY-77" value="" style="endArrow=classic;html=1;rounded=0;entryX=1;entryY=0.5;entryDx=0;entryDy=0;" edge="1" parent="1" target="UTlt9TKINnefYzKURxrY-46">
          <mxGeometry width="50" height="50" relative="1" as="geometry">
            <mxPoint x="1190" y="1750" as="sourcePoint" />
            <mxPoint x="793" y="1809" as="targetPoint" />
          </mxGeometry>
        </mxCell>
        <mxCell id="UTlt9TKINnefYzKURxrY-78" value="" style="endArrow=classic;html=1;rounded=0;entryX=1;entryY=0.5;entryDx=0;entryDy=0;" edge="1" parent="1" target="UTlt9TKINnefYzKURxrY-50">
          <mxGeometry width="50" height="50" relative="1" as="geometry">
            <mxPoint x="1190" y="1750" as="sourcePoint" />
            <mxPoint x="800" y="1910" as="targetPoint" />
          </mxGeometry>
        </mxCell>
        <mxCell id="UTlt9TKINnefYzKURxrY-79" value="" style="endArrow=classic;html=1;rounded=0;entryX=1;entryY=0.5;entryDx=0;entryDy=0;" edge="1" parent="1" target="UTlt9TKINnefYzKURxrY-51">
          <mxGeometry width="50" height="50" relative="1" as="geometry">
            <mxPoint x="1190" y="1750" as="sourcePoint" />
            <mxPoint x="798" y="2000" as="targetPoint" />
          </mxGeometry>
        </mxCell>
        <mxCell id="UTlt9TKINnefYzKURxrY-80" value="" style="endArrow=classic;html=1;rounded=0;entryX=0.964;entryY=0.275;entryDx=0;entryDy=0;entryPerimeter=0;exitX=0;exitY=1;exitDx=0;exitDy=0;exitPerimeter=0;" edge="1" parent="1" source="UTlt9TKINnefYzKURxrY-59" target="UTlt9TKINnefYzKURxrY-52">
          <mxGeometry width="50" height="50" relative="1" as="geometry">
            <mxPoint x="1200" y="1760" as="sourcePoint" />
            <mxPoint x="798" y="2090" as="targetPoint" />
          </mxGeometry>
        </mxCell>
        <mxCell id="UTlt9TKINnefYzKURxrY-81" value="" style="endArrow=classic;html=1;rounded=0;entryX=0.949;entryY=0.369;entryDx=0;entryDy=0;entryPerimeter=0;" edge="1" parent="1" target="UTlt9TKINnefYzKURxrY-53">
          <mxGeometry width="50" height="50" relative="1" as="geometry">
            <mxPoint x="1120" y="1900" as="sourcePoint" />
            <mxPoint x="791" y="2162" as="targetPoint" />
          </mxGeometry>
        </mxCell>
        <mxCell id="UTlt9TKINnefYzKURxrY-82" value="" style="endArrow=classic;html=1;rounded=0;entryX=0.957;entryY=0.275;entryDx=0;entryDy=0;entryPerimeter=0;" edge="1" parent="1" target="UTlt9TKINnefYzKURxrY-54">
          <mxGeometry width="50" height="50" relative="1" as="geometry">
            <mxPoint x="1120" y="1900" as="sourcePoint" />
            <mxPoint x="789" y="2260" as="targetPoint" />
          </mxGeometry>
        </mxCell>
        <mxCell id="UTlt9TKINnefYzKURxrY-84" value="" style="endArrow=classic;html=1;rounded=0;exitX=1;exitY=0.3333333333333333;exitDx=0;exitDy=0;exitPerimeter=0;entryX=0;entryY=0.5;entryDx=0;entryDy=0;" edge="1" parent="1" source="UTlt9TKINnefYzKURxrY-1" target="UTlt9TKINnefYzKURxrY-4">
          <mxGeometry width="50" height="50" relative="1" as="geometry">
            <mxPoint x="560" y="330" as="sourcePoint" />
            <mxPoint x="610" y="280" as="targetPoint" />
          </mxGeometry>
        </mxCell>
        <mxCell id="UTlt9TKINnefYzKURxrY-85" value="" style="endArrow=classic;html=1;rounded=0;exitX=1;exitY=0.3333333333333333;exitDx=0;exitDy=0;exitPerimeter=0;entryX=0.045;entryY=0.681;entryDx=0;entryDy=0;entryPerimeter=0;" edge="1" parent="1" source="UTlt9TKINnefYzKURxrY-1" target="UTlt9TKINnefYzKURxrY-5">
          <mxGeometry width="50" height="50" relative="1" as="geometry">
            <mxPoint x="300" y="430" as="sourcePoint" />
            <mxPoint x="625" as="targetPoint" />
          </mxGeometry>
        </mxCell>
        <mxCell id="UTlt9TKINnefYzKURxrY-86" value="" style="endArrow=classic;html=1;rounded=0;exitX=1;exitY=0.3333333333333333;exitDx=0;exitDy=0;exitPerimeter=0;entryX=0;entryY=0.5;entryDx=0;entryDy=0;" edge="1" parent="1" source="UTlt9TKINnefYzKURxrY-1" target="UTlt9TKINnefYzKURxrY-6">
          <mxGeometry width="50" height="50" relative="1" as="geometry">
            <mxPoint x="300" y="430" as="sourcePoint" />
            <mxPoint x="633" y="104" as="targetPoint" />
          </mxGeometry>
        </mxCell>
        <mxCell id="UTlt9TKINnefYzKURxrY-87" value="" style="endArrow=classic;html=1;rounded=0;entryX=0;entryY=0.5;entryDx=0;entryDy=0;" edge="1" parent="1" target="UTlt9TKINnefYzKURxrY-7">
          <mxGeometry width="50" height="50" relative="1" as="geometry">
            <mxPoint x="290" y="420" as="sourcePoint" />
            <mxPoint x="625" y="180" as="targetPoint" />
          </mxGeometry>
        </mxCell>
        <mxCell id="UTlt9TKINnefYzKURxrY-88" value="" style="endArrow=classic;html=1;rounded=0;entryX=0.037;entryY=0.681;entryDx=0;entryDy=0;entryPerimeter=0;" edge="1" parent="1" target="UTlt9TKINnefYzKURxrY-9">
          <mxGeometry width="50" height="50" relative="1" as="geometry">
            <mxPoint x="290" y="420" as="sourcePoint" />
            <mxPoint x="625" y="270" as="targetPoint" />
          </mxGeometry>
        </mxCell>
        <mxCell id="UTlt9TKINnefYzKURxrY-89" value="" style="endArrow=classic;html=1;rounded=0;entryX=0;entryY=0.5;entryDx=0;entryDy=0;exitX=1;exitY=0.3333333333333333;exitDx=0;exitDy=0;exitPerimeter=0;" edge="1" parent="1" source="UTlt9TKINnefYzKURxrY-1" target="UTlt9TKINnefYzKURxrY-10">
          <mxGeometry width="50" height="50" relative="1" as="geometry">
            <mxPoint x="300" y="430" as="sourcePoint" />
            <mxPoint x="631" y="374" as="targetPoint" />
          </mxGeometry>
        </mxCell>
        <mxCell id="UTlt9TKINnefYzKURxrY-90" value="" style="endArrow=classic;html=1;rounded=0;entryX=0.045;entryY=0.337;entryDx=0;entryDy=0;exitX=0.5;exitY=0.5;exitDx=0;exitDy=0;exitPerimeter=0;entryPerimeter=0;" edge="1" parent="1" source="UTlt9TKINnefYzKURxrY-1" target="UTlt9TKINnefYzKURxrY-28">
          <mxGeometry width="50" height="50" relative="1" as="geometry">
            <mxPoint x="300" y="430" as="sourcePoint" />
            <mxPoint x="628" y="450" as="targetPoint" />
          </mxGeometry>
        </mxCell>
        <mxCell id="UTlt9TKINnefYzKURxrY-91" value="" style="endArrow=classic;html=1;rounded=0;entryX=0.037;entryY=0.337;entryDx=0;entryDy=0;exitX=0.5;exitY=0.5;exitDx=0;exitDy=0;exitPerimeter=0;entryPerimeter=0;" edge="1" parent="1" source="UTlt9TKINnefYzKURxrY-1" target="UTlt9TKINnefYzKURxrY-15">
          <mxGeometry width="50" height="50" relative="1" as="geometry">
            <mxPoint x="230" y="480" as="sourcePoint" />
            <mxPoint x="635" y="527" as="targetPoint" />
          </mxGeometry>
        </mxCell>
        <mxCell id="UTlt9TKINnefYzKURxrY-92" value="" style="endArrow=classic;html=1;rounded=0;entryX=0;entryY=0;entryDx=0;entryDy=0;exitX=0.5;exitY=0.5;exitDx=0;exitDy=0;exitPerimeter=0;" edge="1" parent="1" source="UTlt9TKINnefYzKURxrY-1" target="UTlt9TKINnefYzKURxrY-11">
          <mxGeometry width="50" height="50" relative="1" as="geometry">
            <mxPoint x="230" y="480" as="sourcePoint" />
            <mxPoint x="631" y="627" as="targetPoint" />
          </mxGeometry>
        </mxCell>
        <mxCell id="UTlt9TKINnefYzKURxrY-93" value="" style="endArrow=classic;html=1;rounded=0;entryX=0.045;entryY=0.369;entryDx=0;entryDy=0;exitX=1;exitY=1;exitDx=0;exitDy=0;exitPerimeter=0;entryPerimeter=0;" edge="1" parent="1" source="UTlt9TKINnefYzKURxrY-1" target="UTlt9TKINnefYzKURxrY-18">
          <mxGeometry width="50" height="50" relative="1" as="geometry">
            <mxPoint x="230" y="480" as="sourcePoint" />
            <mxPoint x="650" y="702" as="targetPoint" />
          </mxGeometry>
        </mxCell>
        <mxCell id="UTlt9TKINnefYzKURxrY-94" value="" style="endArrow=classic;html=1;rounded=0;exitX=1;exitY=1;exitDx=0;exitDy=0;exitPerimeter=0;entryX=0;entryY=0.5;entryDx=0;entryDy=0;" edge="1" parent="1" source="UTlt9TKINnefYzKURxrY-1" target="UTlt9TKINnefYzKURxrY-21">
          <mxGeometry width="50" height="50" relative="1" as="geometry">
            <mxPoint x="300" y="630" as="sourcePoint" />
            <mxPoint x="638" y="810" as="targetPoint" />
          </mxGeometry>
        </mxCell>
        <mxCell id="UTlt9TKINnefYzKURxrY-95" value="" style="endArrow=classic;html=1;rounded=0;exitX=1;exitY=1;exitDx=0;exitDy=0;exitPerimeter=0;entryX=0;entryY=0.5;entryDx=0;entryDy=0;" edge="1" parent="1" source="UTlt9TKINnefYzKURxrY-1" target="UTlt9TKINnefYzKURxrY-22">
          <mxGeometry width="50" height="50" relative="1" as="geometry">
            <mxPoint x="300" y="630" as="sourcePoint" />
            <mxPoint x="630" y="910" as="targetPoint" />
          </mxGeometry>
        </mxCell>
        <mxCell id="UTlt9TKINnefYzKURxrY-96" value="" style="endArrow=classic;html=1;rounded=0;entryX=0;entryY=0.5;entryDx=0;entryDy=0;exitX=1;exitY=1;exitDx=0;exitDy=0;exitPerimeter=0;" edge="1" parent="1" source="UTlt9TKINnefYzKURxrY-1" target="UTlt9TKINnefYzKURxrY-23">
          <mxGeometry width="50" height="50" relative="1" as="geometry">
            <mxPoint x="300" y="620" as="sourcePoint" />
            <mxPoint x="630" y="1000" as="targetPoint" />
          </mxGeometry>
        </mxCell>
        <mxCell id="UTlt9TKINnefYzKURxrY-97" value="" style="endArrow=classic;html=1;rounded=0;entryX=0.024;entryY=0.367;entryDx=0;entryDy=0;exitX=1;exitY=1;exitDx=0;exitDy=0;exitPerimeter=0;entryPerimeter=0;" edge="1" parent="1" source="UTlt9TKINnefYzKURxrY-1" target="UTlt9TKINnefYzKURxrY-24">
          <mxGeometry width="50" height="50" relative="1" as="geometry">
            <mxPoint x="300" y="630" as="sourcePoint" />
            <mxPoint x="630" y="1090" as="targetPoint" />
          </mxGeometry>
        </mxCell>
      </root>
    </mxGraphModel>
  </diagram>
</mxfile>
